<svg xmlns="http://www.w3.org/2000/svg" width="205.964" height="430.086" viewBox="0 0 205.964 430.086">
  <g id="FlowerType1" transform="translate(0 0.596)">
    <g id="Scene_Plants" data-name="Scene/Plants" transform="translate(0 -0.596)">
      <path id="Leaf-Top" d="M98.7,8.648c2.656-1.148,6.029.522,4.412,3.839-1.733,3.553-7.436,3.3-10.652,3.058.323,0,1.536-3.278,1.917-3.763A10.933,10.933,0,0,1,98.7,8.648ZM65.43,73.293C64.475,74.026,65.352,73.362,65.43,73.293Zm35.4-47.617a3.093,3.093,0,0,1,.111,4.661c-1.594,1.59-4.341,1.386-6.386,1.117-.925-.122-5.862-.772-4.645-1.515a4.116,4.116,0,0,0-.493.2q-.194.582-.4,1.158c.028.018.052.038.082.056-.032-.016-.055-.033-.084-.05a44.963,44.963,0,0,1-5.7,10.827,10.812,10.812,0,0,1,2.6-.546c2.6-.19,7.941,2.083,4.866,5.344-2.947,3.126-7.081-.606-10.2-1.254A146.564,146.564,0,0,1,69.98,57.339a.838.838,0,0,1,.492.451A20.827,20.827,0,0,1,74.779,56c1.912-.3,5.8-.338,7.142,1.411,1.648,2.153-.324,3.729-2.421,4.016-3.041.417-6.906-1.245-9.752-2.379a.962.962,0,0,1-.893-.348l-.187-.071c-3.78,3.706-7.69,7.276-11.572,10.765h.12A10.087,10.087,0,0,1,60.4,68.153c2.621-.49,5.665-.335,7.666,1.628s2.564,5.221.291,7.182c-4.551,3.925-10.432-5.867-12.6-6.376-3.944,3.507-8.089,6.758-12.294,9.938a7.232,7.232,0,0,1,1.426-.212c3.967-.169,12.978,5.1,7.885,9.567-4.439,3.89-8.907-4.272-12.161-7.215-3.961,2.961-7.94,5.9-11.819,8.965a10.9,10.9,0,0,1,6.14.358c2.207.788,5.737,2.652,4.161,5.577-1.6,2.974-5.875,1.361-8.086.276-1.207-.592-3.587-2.5-5.72-3.366A74.042,74.042,0,0,0,9.381,112.5a64.312,64.312,0,0,0-6.3,13.9c-.991,3.1-2.9,8.287-2.788,12.39-1.12-8.261,2.207-17.94,5.617-25.1A61.569,61.569,0,0,1,18.67,96.365c-1.03-3.706-11.045-9.494-4.712-12.558,3.362-1.62,6.552,1.523,7.1,4.7.376,2.187-.515,4.863-1.42,6.919q2.428-2.31,5.018-4.455c2.38-1.977,4.812-3.89,7.264-5.776-3.676-3.8-6.79-14.269-1.518-15.681,7.785-2.079,3.357,11.755,2.684,14.355a.42.42,0,0,1-.35-.153c.03.243.067.5.114.766C37.542,80.9,42.3,77.384,46.911,73.7a19.977,19.977,0,0,1-1.418-2.071,22.42,22.42,0,0,1-2.747-4.437c-1.107-2.527-2.091-6.518,1.264-7.8C47.658,58,49.117,62.531,49,65.183a34.821,34.821,0,0,1-1.034,5.333c-.111.556.071,3.1-.642,1.972a5.279,5.279,0,0,1-.024.9q1.244-1,2.469-2.017a.958.958,0,0,1-.052-.309.927.927,0,0,1,1.37-.794q1.62-1.373,3.205-2.791c2.234-2.009,4.5-4.077,6.757-6.193-.443-.419-.23-.955-.641-1.4s-1.252-.715-1.74-1.13a12.207,12.207,0,0,1-2.91-3.963c-1.145-2.38-2.527-7.32,1.236-8.231,3.878-.941,5.569,3.834,5.66,6.769a74.14,74.14,0,0,1-1.106,7.482C65.722,56.88,69.84,52.788,73.6,48.6c-1.068-.065-3.983-2.391-4.564-3.014-1.418-1.521-3.625-4.833-.915-6.384,2.409-1.376,5.165.941,6.05,3.1a29.292,29.292,0,0,1,.52,5.065c1.557-1.776,3.047-3.567,4.44-5.369q1.394-1.8,2.627-3.694a1.737,1.737,0,0,1-.488-.528c-3.851-.855-8.487-7.115-3.812-8.967,2.226-.88,4.474,1.292,5.449,3.026a22.105,22.105,0,0,1,.677,3.476,71.738,71.738,0,0,0,5.813-13.3.843.843,0,0,1-.622-.814,11.546,11.546,0,0,1-4.481-4.243c-.751-1.314-2.07-4.3.371-4.878,3.177-.756,4.891,4.077,5.024,6.421.016.272-.027,1.059-.075,1.779a1.063,1.063,0,0,1,.326.023c.872-2.863,1.6-5.771,2.212-8.689-1.679-.633-1.5-9.528-.3-10.733,2.691-2.7,4.268,1.483,4.017,3.638A14.227,14.227,0,0,1,92.783,11.3c-.161.21-.117.2-.14-.1a.608.608,0,0,1-.165.333,38.244,38.244,0,0,1-.062,3.91A89.7,89.7,0,0,1,90.7,25.553q-.277,1.213-.613,2.4a19.964,19.964,0,0,1,4.079-2.3C96.094,24.916,99.037,24.166,100.829,25.676ZM0,138.447A6.245,6.245,0,0,0,.738,141.4,16.125,16.125,0,0,1,0,138.447Z" transform="translate(56.165 5.419) rotate(-3)" fill="#c1dee2" fill-rule="evenodd" opacity="0.2"/>
      <g id="Plant-Left" transform="translate(0 38.09)" opacity="0.5">
        <path id="Leaf" d="M161.149,105.308c3.1-4.423,8.859-15.658,13.225-17.238,2.813-1.018,1.992,9.513,2.027,11.521a168.366,168.366,0,0,1-1.555,23.192c-1.683,13.894-7.185,26.267-14.732,38.092-3.883,6.084-8.439,12.243-14.747,16.039-2.9,1.749-6.4,2.041-9.265,3.548-3.34,1.753-1.521.336-3.027,3.816-2.09,4.832-2.759,11.067-3.726,16.222-4.44,23.669-15.192,148.791-13.328,172.867.165,2.134-2.81,2.644-2.959.039-.789-13.813,6.042-109.47,9.49-140.752s6.935-58.919,10.432-69.742c4.243-13.131,11.906-28.921,18.285-41.165A145.668,145.668,0,0,1,161.149,105.308Z" transform="translate(-29.581 -23.036)" fill="#69a1ac" fill-rule="evenodd"/>
        <path id="Leaf-2" data-name="Leaf" d="M183.128,318.682c8.072-5.926,16.811,5.258,9.505,11.185-4.038,3.276-8.26,2.111-10.636-.619-1.543,1.881-2.987,3.848-4.375,5.508C173.394,339.818,169.4,345,165.58,350.3c-7.933,11.017-14.731,22.656-21.84,34.082-7.015,11.277-13.973,22.612-20.331,34.174-5.386,9.8-12.565,21.321-14.409,32.06,2.8-22.777,13.415-44.67,26.058-64.749,12.54-19.915,26.931-41.664,46.348-57.38A6.877,6.877,0,0,1,183.128,318.682Z" transform="translate(-28.534 -82.984)" fill="#c1dee2" fill-rule="evenodd"/>
        <path id="Leaf-3" data-name="Leaf" d="M1.412,244.023c4.517.883,11.9,11.1,15.622,15a145.815,145.815,0,0,1,12.225,14.726,249.069,249.069,0,0,1,21.629,35.278,327.908,327.908,0,0,1,24.065,62.629,258.268,258.268,0,0,1,7.3,41.08c.261,2.6,2.988,22.655-.942,23.195-3.534.487-2.442-15.227-2.613-17.364-1.928-24.114-7.7-47.577-15.732-70.306-1.749-4.951-3.374-11.016-6.172-15.472-2.015-3.209-.014-2.09-3.555-3.3-3.04-1.044-6.5-.788-9.616-2.066-6.763-2.773-12.177-8.157-16.924-13.572-9.224-10.525-16.534-21.91-20.344-35.4a170.392,170.392,0,0,1-5.134-22.706C.945,253.747-1.5,243.454,1.412,244.023Z" transform="translate(0 -63.874)" fill="#69a1ac" fill-rule="evenodd"/>
        <path id="Leaf-4" data-name="Leaf" d="M22.38,10.125a409.365,409.365,0,0,1,40.028,94.758c5.47,19.893,9.3,40.306,13.1,60.571,5.885,31.379,11.452,62.755,13.036,94.691,1.593,32.121,4.743,69.169-5.774,100.107,5.254-31.41.252-64.844-.634-96.449-.423-15.088-1.649-30.028-3.259-45.028-1.561-14.55-4.112-29.031-6.487-43.467q-1.736-10.546-3.609-21.067c-.369-2.094-.525-8.305-1.853-9.735s-8.155-2.026-10.3-3.083a55.255,55.255,0,0,1-11.954-8.341c-6.88-6.121-12.864-14.118-17.588-22-10.93-18.24-15.3-40.5-15.078-61.625C12.05,45.355,18.647,1.189,16,.58Q16.237.3,16.45,0,19.458,5.037,22.38,10.125Z" transform="translate(-3.141)" fill="#89c5cc" fill-rule="evenodd"/>
        <path id="Leaf-5" data-name="Leaf" d="M231.693,156.87c.263-.379,1.972-3.012,1.111-2.844,1.752-.343-2.41,2.9,1.956.912-2.073,1.958-.876,4.5-.849,7.135a63.915,63.915,0,0,1-1.476,12.706,87.135,87.135,0,0,1-5.923,19.2c-6,13.411-16.187,26.321-28.281,34.706-5.971,4.139-11.822,5.549-18.631,7.455-4.3,1.2-4.643,3.429-6.926,7.6-4.753,8.693-9.421,17.355-13.614,26.341-5.005,10.732-9.864,21.474-14.448,32.394C129.171,339.262,116.6,377.37,110,416.807c-.162-23.24,5.215-47.176,12-69.328,4.94-16.139,11.371-31.7,18.23-47.1,1.662-3.73,4.181-8.53,4.887-12.649.494-2.886-1.017-5.661-1.709-8.7a91.068,91.068,0,0,1-.136-37c2.612-13.125,10.164-19.217,22.94-21.075,4.672-.681,10.611-.431,14.9-2.424,4.668-2.169,6.593-9.3,9.248-13.877A188.72,188.72,0,0,1,215.68,170.2a82.156,82.156,0,0,1,8.662-7.969C226.28,160.683,230.372,158.776,231.693,156.87Z" transform="translate(-28.796 -40.314)" fill="#89c5cc" fill-rule="evenodd"/>
        <path id="Base" d="M79.482,476h45.34a3.692,3.692,0,0,1,3.691,3.691,3.642,3.642,0,0,1-.04.538l-3.5,23.763a14.765,14.765,0,0,1-14.606,12.61H93.942a14.765,14.765,0,0,1-14.607-12.61l-3.5-23.763a3.691,3.691,0,0,1,3.113-4.19A3.749,3.749,0,0,1,79.482,476Z" transform="translate(-19.84 -124.606)" fill="#c1dee2" fill-rule="evenodd"/>
      </g>
    </g>
  </g>
</svg>
