<svg id="Symbols" xmlns="http://www.w3.org/2000/svg" width="111" height="282" viewBox="0 0 111 282">
  <g id="Scene_Home" data-name="Scene/Home" transform="translate(-537 -328)">
    <g id="Plant" transform="translate(537 328)">
      <g id="Succulents" transform="translate(13)">
        <path id="Thi-Succs_" data-name="Thi-Succs!" d="M3.381.208C12.214,21.2,27.229,35.78,35.182,57.6c4.716,12.943,6.682,27.015,6.8,41.427.065,7.828-.071,15.662-.108,23.49-.036,7.634-.243,15.219-.891,22.8-.651,7.625-1.38,15.16-1.7,22.832-.25,5.978-.365,12.932-2.391,18.385-1.611,4.337-5.707,4.972-6.794-.288a42.041,42.041,0,0,1-.461-9.193c.086-3.855.31-7.7.424-11.559.46-15.468-.136-30.938.175-46.412.3-15.119,2.248-30.221.1-45.239-1.776-12.4-6.287-23.051-11.471-33.26C13.874,30.771,8.445,21.187,5.075,10.014A53.841,53.841,0,0,1,3,.03Q3.235-.079,3.381.208Z" fill="#c1dee2" fill-rule="evenodd"/>
        <path id="Thi-Succs_2" data-name="Thi-Succs!" d="M.974,41.617C2.723,42.88,3.7,44.728,4.882,46.55c1.47,2.267,3.2,4.313,4.668,6.581C12.615,57.86,15.308,62.879,18.1,67.8a96.066,96.066,0,0,1,11.326,30.1c2.067,11.2,2.625,22.753,3.492,34.117.92,12.044,1.846,24.176,1.968,36.267.055,5.417.347,11.167-.3,16.546-.4,3.348-1.916,6.2-5.323,6.175-7.236-.058-10.634-8.073-12.053-14.646-2.089-9.68-2.506-19.961-2.175-29.86.4-11.936,2.471-23.692,3.368-35.582.95-12.587.413-24.952-3.914-36.8-2.186-5.989-4.724-11.835-7-17.784a57.491,57.491,0,0,0-3.075-7.494C2.951,46.208,1.142,43.826,0,41Z" fill="#89c5cc" fill-rule="evenodd"/>
        <path id="Thi-Succs_3" data-name="Thi-Succs!" d="M84.334,16.518,85,16a66.168,66.168,0,0,1-2.676,7.341,59.9,59.9,0,0,0-1.729,7.136c-1.255,5.681-2.7,11.234-3.889,16.963-2.346,11.337-1.9,23.55-.364,36.128,1.453,11.881,3.751,23.745,4.845,35.624a163.547,163.547,0,0,1,.432,29.409c-.588,6.383-2.517,14.005-7.771,13.361-2.474-.3-3.764-3.281-4.284-6.642-.835-5.4-1.01-11.074-1.335-16.442-.726-11.982-.871-23.927-1.015-35.786-.136-11.188-.51-22.6.238-33.5a102.688,102.688,0,0,1,6.2-28.758c1.7-4.61,3.317-9.328,5.225-13.721.915-2.107,2.033-3.97,2.949-6.075C82.563,19.339,83.148,17.6,84.334,16.518Z" fill="#c1dee2" fill-rule="evenodd"/>
        <path id="Thi-Succs_4" data-name="Thi-Succs!" d="M3.209,76.3c.957-1.607,3.063,3.692,3.384,4.358q-.2-.5-.409-.993A44.093,44.093,0,0,1,10.9,89.734c1.069,3.585,1.987,7.242,2.99,10.853,1.882,6.774,4.31,13.356,6.016,20.191a65.7,65.7,0,0,1,1.678,20.1,171.682,171.682,0,0,0-.186,21.587c.233,3.418,1.344,6.6,2.1,9.892s1.362,6.632,2.263,9.885c.207-.424.233.993.233,1.1a6.832,6.832,0,0,1-.381,2.265,6.1,6.1,0,0,1-3.841,4.212c-3.456.987-6.666-2.157-7.78-5.477A90.86,90.86,0,0,1,10.755,169.3,70.881,70.881,0,0,1,10.1,155.44c.409-9.179,2.07-18.238,2.519-27.414.489-9.99-1.49-19.377-3.147-29.1A84.98,84.98,0,0,0,6.356,85.134a38.759,38.759,0,0,0-2.309-5.072C3.558,79.112,2.569,77.418,3.209,76.3Z" fill="#c1dee2" fill-rule="evenodd"/>
        <path id="Thi-Succs_5" data-name="Thi-Succs!" d="M31.252,60.7c-.4,11.445-1.08,22.8-2.606,34.127C27.089,106.38,25.3,117.9,23.8,129.463c-1.459,11.259-2.987,22.705-2.784,34.122.15,8.408-1.244,22.634,8.095,26.784,9.459,4.2,11.488-13.746,12.109-19.67,1.19-11.366.8-22.852.227-34.28-.593-11.73-1.583-23.4-2.81-35.085-1.363-12.981-2.432-26.021-3.29-39.038-.425-6.439-.529-12.867-.412-19.308.111-6.077-.12-12.218-2.281-17.988l-.339.246" fill="#69a1ac" fill-rule="evenodd"/>
        <path id="Thi-Succs_6" data-name="Thi-Succs!" d="M80.083,96.955c-1.7,2.478-3.416,4.932-5.022,7.557-2.874,4.7-5.474,9.92-6.256,16.635-1.636,14.053-.324,29.232-.007,43.716.065,2.959-.31,5.83.857,8.647,1.058,2.554,3.035,4.5,4.92,4.49,4.035-.023,3.42-9.9,3.426-14.254.012-7.623-.843-15.324-.769-22.94a159.266,159.266,0,0,1,1.626-22.278,128.363,128.363,0,0,1,4.87-20.718c.3-.9,2.429-7.872.415-6.671" fill="#89c5cc" fill-rule="evenodd"/>
        <path id="Thi-Succs_7" data-name="Thi-Succs!" d="M62.262,22c-2.653,0-2.637,13.226-2.717,14.925-.288,6.131-.221,12.263-.4,18.395-.4,13.381-.889,26.88-2.9,40.107-1.082,7.121-2.337,14.21-3.686,21.276-1.353,7.087-3.17,14.165-4.06,21.342-.855,6.9-.372,13.933-.255,20.866a182.661,182.661,0,0,0,1.242,20.878c.225,1.706.49,3.407.773,5.1a40.444,40.444,0,0,0,.5,4.51c.639,2.151,3.379,2.855,5.224,2.519,4.993-.911,8.181-7.18,9.887-11.76,2.178-5.849,3.334-12.193,4.474-18.356a160.442,160.442,0,0,0,2.4-21.181c.722-14.448-.2-28.911-1.24-43.313-.576-8.009-1.241-15.984-2.258-23.943-1.013-7.926-2.313-15.816-3.16-23.765-.615-5.777-1.221-11.561-1.619-17.36-.1-1.383-.175-10.241-2.2-10.241" fill="#69a1ac" fill-rule="evenodd"/>
        <path id="Thi-Succs_8" data-name="Thi-Succs!" d="M58.941,118.139c-.432-13.886-6.014-74.88-7.284-91.672-.318-4.2-3.375-21.7-3.772-26.467-1.075,1.347-.983,22.309-.972,27.126.013,4.765-.578,9.45-.882,14.189-.31,4.836-7.458,67.285-8.386,71.932-1.846,9.244-3.081,18.729-4.034,28.181-.928,9.211-2.371,18.93-1.129,28.19a28.3,28.3,0,0,0,1.473,6.188c.795,2.116,1.339,4.073,1.977,6.287,1.026,3.566,2.883,6.7,5.736,8.169,5.849,3.019,8.99-3.815,10.583-9.765a159.225,159.225,0,0,0,4.94-29.138c.847-11.041,2.1-22.1,1.75-33.22" fill="#89c5cc" fill-rule="evenodd"/>
      </g>
      <g id="Planter" transform="translate(0 159)">
        <rect id="Vase" width="91" height="91" rx="2" transform="translate(10)" fill="#fff"/>
        <rect id="Leg" width="10" height="113" rx="2" transform="translate(0 10)" fill="#c5cfd6"/>
        <rect id="Leg-2" data-name="Leg" width="10" height="113" rx="2" transform="translate(50 10)" fill="#c5cfd6"/>
        <rect id="Leg-3" data-name="Leg" width="10" height="113" rx="2" transform="translate(101 10)" fill="#c5cfd6"/>
      </g>
    </g>
  </g>
</svg>
