<svg xmlns="http://www.w3.org/2000/svg" width="310.743" height="404.501" viewBox="0 0 310.743 404.501">
  <g id="FlowerType2" transform="translate(12.002 1.002)">
    <g id="Scene_Plants" data-name="Scene/Plants" transform="translate(-12.002 -1.002)">
      <path id="Leaf-Bottom" d="M164.153,222.622c4.5,1.944,10.209-.884,7.47-6.5-2.934-6.016-12.592-5.586-18.038-5.178.547,0,2.6,5.55,3.247,6.371A18.51,18.51,0,0,0,164.153,222.622ZM107.866,114.949C106.711,114.062,107.772,114.865,107.866,114.949Zm59.051,79.62a5.209,5.209,0,0,0,.185-7.8c-2.641-2.659-7.192-2.319-10.579-1.869-1.532.2-9.712,1.292-7.694,2.534a6.637,6.637,0,0,1-.817-.338q-.323-.974-.67-1.938c.046-.03.087-.063.137-.094-.054.027-.093.055-.14.083A75.483,75.483,0,0,0,137.9,167.04a17.8,17.8,0,0,0,4.311.913c4.314.318,13.154-3.485,8.061-8.94-4.883-5.229-11.73,1.014-16.905,2.1A244.185,244.185,0,0,0,115.813,141.6a1.394,1.394,0,0,0,.815-.755c2.408,1.067,4.941,2.641,7.135,2.989,3.167.5,9.612.566,11.831-2.362,2.731-3.6-.537-6.236-4.011-6.718-5.039-.7-11.44,2.081-16.154,3.98a1.588,1.588,0,0,0-1.48.582l-.31.119c-6.261-6.2-12.739-12.172-19.17-18.009h.2a16.631,16.631,0,0,0,5.28,2.082c4.341.82,9.384.561,12.7-2.723,3.3-3.269,4.248-8.735.481-12.014-7.539-6.565-17.281,9.815-20.865,10.665-6.534-5.865-13.4-11.305-20.367-16.623a11.917,11.917,0,0,0,2.362.354c6.571.283,21.5-8.537,13.061-16-7.353-6.506-14.753,7.146-20.146,12.068-6.56-4.953-13.153-9.868-19.579-15a17.894,17.894,0,0,0,10.172-.6c3.656-1.319,9.5-4.439,6.893-9.331-2.656-4.975-9.733-2.277-13.4-.461-2,.99-5.942,4.186-9.477,5.63C31.5,70.742,22.481,61,15.426,49.332A108.047,108.047,0,0,1,4.985,26.084C3.342,20.9.185,12.223.366,5.358c-1.854,13.819,3.657,30.011,9.306,41.98,5.2,11.005,12.6,20.518,21.142,28.983-1.706,6.2-18.3,15.881-7.807,21.007,5.57,2.709,10.854-2.548,11.762-7.869.623-3.657-.853-8.134-2.351-11.573q4.022,3.864,8.312,7.452C44.673,88.643,48.7,91.844,52.764,95c-6.089,6.352-11.248,23.869-2.515,26.232,12.9,3.478,5.562-19.663,4.447-24.014a.693.693,0,0,0-.579.254c.051-.406.111-.841.188-1.28,7.773,6.006,15.65,11.88,23.293,18.046-.632.521-1.581,2.433-2.35,3.465a37.551,37.551,0,0,0-4.549,7.422c-1.833,4.228-3.464,10.9,2.093,13.042,6.043,2.331,8.46-5.249,8.269-9.686-.132-3.068-1.121-5.937-1.713-8.92-.185-.93.117-5.184-1.065-3.3a8.957,8.957,0,0,0-.039-1.5q2.059,1.669,4.091,3.374a1.592,1.592,0,0,0-.087.515,1.534,1.534,0,0,0,2.27,1.329q2.685,2.3,5.31,4.67c3.7,3.361,7.458,6.82,11.194,10.359-.734.7-.38,1.6-1.062,2.337s-2.073,1.2-2.883,1.89a20.434,20.434,0,0,0-4.82,6.629c-1.9,3.982-4.186,12.246,2.047,13.769,6.425,1.574,9.226-6.412,9.377-11.321a124.846,124.846,0,0,0-1.832-12.517c6.915,6.578,13.736,13.421,19.957,20.42-1.769.109-6.6,4-7.561,5.042-2.348,2.544-6.005,8.085-1.516,10.68,3.991,2.3,8.557-1.574,10.022-5.184a49.529,49.529,0,0,0,.863-8.473c2.579,2.971,5.047,5.967,7.355,8.98q2.309,3.006,4.352,6.18a2.9,2.9,0,0,0-.807.883c-6.379,1.43-14.059,11.9-6.316,15,3.687,1.472,7.41-2.162,9.027-5.062a37.462,37.462,0,0,0,1.122-5.815,120.629,120.629,0,0,1,9.629,22.251,1.407,1.407,0,0,0-1.029,1.362c-3.031,1.945-5.422,3.557-7.424,7.1-1.244,2.2-3.429,7.188.614,8.161,5.263,1.265,8.1-6.82,8.323-10.741.026-.455-.046-1.772-.126-2.977a1.743,1.743,0,0,0,.54-.037c1.444,4.789,2.652,9.653,3.666,14.535-2.781,1.059-2.492,15.939-.5,17.955,4.458,4.515,7.069-2.481,6.654-6.085-.488-4.249-2.624-8.027-5.1-11.348-.265-.351-.195-.338-.231.174a1.029,1.029,0,0,0-.274-.558,64.729,64.729,0,0,0-.1-6.54,151.653,151.653,0,0,0-2.835-16.918q-.458-2.029-1.015-4.02a32.963,32.963,0,0,0,6.758,3.853C159.073,195.84,163.949,197.1,166.917,194.57ZM0,5.358A16.033,16.033,0,0,1,.893,0,41.8,41.8,0,0,0,0,5.358Z" transform="matrix(-0.999, -0.052, 0.052, -0.999, 172.101, 246.215)" fill="#f2f2f2" fill-rule="evenodd"/>
      <g id="Plant-Right" transform="translate(81.144 46.78)" opacity="0.7">
        <path id="Leaf-Me-Alone_" data-name="Leaf-Me-Alone!" d="M59.741,211.589c-12.19-.646-26.44-9.3-26.349-22.613.067-9.674,1.361-19.192.912-28.906a77.84,77.84,0,0,0-4.67-22.67c-2.522-7.033-8.613-13.433-9.6-20.766-.63-4.673.664-11.017,2.662-15.313,2.429-5.223,1.4-4.9-1.832-9.835-6.325-9.673-11.9-19.5-15.41-30.625C.4,44.835-2.079,26.46,2.156,9.941c.539-2.1,1.715-9.7,4.7-9.93C10.2-.242,8.209,3.97,7.886,5.364,5.823,14.259,4,22.033,4.388,31.329c1.477,35.864,24.368,61.8,37.715,93.505.744,1.641,2.272,5.523,3.348,8.091,1.7,4.055,3.045,11.572,5.591,14.714,4.8,5.919,1-5.366.173-7.53-1.047-2.739-2.209-5.655-3.322-8.076-5.08-11.211-10.777-23.464-16.026-35.022,28.31-3.393,44.287,31.891,49.41,54.523,4.221,18.646,7.11,61.508-21.536,60.055" transform="matrix(-0.995, 0.105, -0.105, -0.995, 105.597, 307.215)" fill="#69a1ac" fill-rule="evenodd"/>
        <path id="Leaf-Me-Alone_2" data-name="Leaf-Me-Alone!" d="M199.905,78.108c-20.379,1.617-33.462,15.064-39.552,33.873-3.282,10.136-3.659,20.548-5.484,30.965-2.743,15.671-8.647,27.548-20.186,38.713a38.946,38.946,0,0,0-8.079,10.806,46.034,46.034,0,0,0-9.328,13.331c-3.036,6.7-3.895,14.741-.39,21.421.943,1.8,3.294,5.4,5.731,7.039-9.123,19.43-14.14,40.711-13.574,61.964.342,12.829.968,25.664,1.7,38.477.2,3.44,1.317,9.122,3,3.352,1.54-5.278-.391-13.564-.57-19.077-.87-26.86-1.613-51.283,9.444-76.378,1.16-2.631,2.389-5.24,3.669-7.827a2.556,2.556,0,0,0,.216-.147c.048.038.093.078.142.115.081-.146.194-.32.324-.513a6.984,6.984,0,0,0,.993-1.392c.98-1.359,2.09-2.957,2.1-3.831,0-.006,0-.017,0-.024a361.671,361.671,0,0,1,22.692-32.082c-.06.076,8.686-11.833,7.335-5.248-.652,3.174-7.085,9.218-9.684,12.58a313.247,313.247,0,0,0-18.106,26.118c-.755.434-1.821,2.563-2.592,4.149-.426.8-.823,1.614-1.213,2.32,19.874,6.566,35.333-6.66,45.875-22.044l.036-.055c3.208-4.25,6.494-8.471,10.6-11.831,6.849-5.608,14.184-6.6,22.26-9.356,22.023-7.525,31.387-36.067,34.36-57.244,3.356-23.892-13.056-60.529-41.71-58.174" transform="translate(-12.448 -8.697)" fill="#89c5cc" fill-rule="evenodd"/>
        <path id="Leaf-Me-Alone_3" data-name="Leaf-Me-Alone!" d="M87.585,2.038C63.843,20.683,49.635,49.177,37.76,76.172c-13.261,30.15-23.587,61.208-28.4,93.818C6.2,191.414,2.585,212.911.826,234.508A230.172,230.172,0,0,0,.036,257.6c.012.632.349,17.815,3.48,14.262,1.781-2.021-.315-17.819-.279-20.4a330.442,330.442,0,0,1,3.913-43.3c3.469-23.634,6.079-47.265,11.788-70.494a80.586,80.586,0,0,1,2.973-10.449c1.4-3.535.047-2.1,3.141-3.139,3.007-1.014,6.45-.325,9.612-1.682,12.545-5.385,20.988-22.558,27.251-33.725C69.078,75.908,74.3,61.952,78.855,48.094a300.239,300.239,0,0,0,8.391-30.848,82.464,82.464,0,0,1,2.328-9.972c.3-.86,1.406-2.3,1.484-3.087C91.223,2.52,90.36,1.4,90.474,0q-1.465.988-2.889,2.038" transform="translate(60.185 12.675) rotate(-8)" fill="#89c5cc" fill-rule="evenodd"/>
        <path id="Base" d="M38,328a65.184,65.184,0,1,0,130.368,0" transform="translate(-4.846 -35.463)" fill="#89c5cc" fill-rule="evenodd"/>
        <path id="Leaf-Me-Alone_4" data-name="Leaf-Me-Alone!" d="M116.444,321.355H113a115.636,115.636,0,0,1,1.277-12.908c2.764-16.343,11.4-40.347,30.351-43a48.953,48.953,0,0,1,6.385.068,11.5,11.5,0,0,1,4.873-1.439c16.133-1.189,34.148,11.825,41.93,25.37,6.274,10.92,5.217,25.259,1.342,36.861-2.595,7.767-8.258,18.841-17.7,18.949-11.815.135-12.385-14.468-12.614-23-.3-11.35-1.738-21.237-10.681-28.973-2.084-1.8-4.362-3.388-6.468-5.165-3.3-2.781-6.94-5.63-7.365-10.232-.586-6.349,3-7.492,8.469-6.312.933.2,10.329,4.417,8.938,1.085-.425-1.018-1.976-1.825-3.934-2.43-5.067-.551-11.11-1.19-12.848-.808C126.208,273.529,118.909,299.5,116.97,316,116.761,317.779,116.592,319.566,116.444,321.355Z" transform="translate(-12.876 -28.611)" fill="#69a1ac" fill-rule="evenodd"/>
      </g>
    </g>
  </g>
</svg>
