<svg xmlns="http://www.w3.org/2000/svg" width="265.35" height="345.413" viewBox="0 0 265.35 345.413">
  <g id="Scene_Plants" data-name="Scene/Plants" transform="translate(0 0)">
    <path id="Leaf-Bottom" d="M140.174,190.1c3.841,1.66,8.718-.755,6.379-5.553-2.506-5.137-10.753-4.77-15.4-4.422.467,0,2.22,4.74,2.772,5.44A15.806,15.806,0,0,0,140.174,190.1ZM92.11,98.158C91.123,97.4,92.029,98.086,92.11,98.158Zm50.425,67.99a4.448,4.448,0,0,0,.158-6.658c-2.255-2.271-6.141-1.98-9.033-1.6-1.308.174-8.293,1.1-6.57,2.164a5.67,5.67,0,0,1-.7-.289q-.276-.832-.572-1.655c.04-.026.074-.054.117-.08-.046.023-.079.047-.12.071a64.457,64.457,0,0,0-8.063-15.465,15.2,15.2,0,0,0,3.681.779c3.684.271,11.232-2.976,6.884-7.634-4.169-4.465-10.017.866-14.436,1.791A208.517,208.517,0,0,0,98.9,120.919a1.19,1.19,0,0,0,.7-.645c2.056.911,4.22,2.255,6.093,2.552,2.7.427,8.207.483,10.1-2.017,2.332-3.074-.458-5.325-3.425-5.736-4.3-.6-9.769,1.777-13.794,3.4a1.356,1.356,0,0,0-1.264.5l-.265.1c-5.347-5.294-10.878-10.394-16.37-15.378h.169a14.2,14.2,0,0,0,4.509,1.778c3.706.7,8.013.479,10.845-2.326s3.627-7.459.411-10.259c-6.438-5.606-14.757,8.381-17.817,9.107C73.207,96.985,67.342,92.339,61.394,87.8a10.176,10.176,0,0,0,2.017.3c5.611.242,18.359-7.29,11.153-13.666-6.279-5.556-12.6,6.1-17.2,10.305-5.6-4.23-11.232-8.426-16.719-12.806a15.28,15.28,0,0,0,8.686-.51c3.122-1.126,8.115-3.79,5.886-7.968-2.268-4.249-8.311-1.944-11.44-.393-1.707.846-5.074,3.575-8.092,4.808A105.424,105.424,0,0,1,13.173,42.126,92.264,92.264,0,0,1,4.257,22.273c-1.4-4.424-4.1-11.836-3.944-17.7C-1.27,16.375,3.435,30.2,8.259,40.422A87.934,87.934,0,0,0,26.313,65.171c-1.457,5.293-15.624,13.561-6.667,17.939,4.756,2.313,9.268-2.175,10.044-6.72.532-3.123-.728-6.946-2.008-9.883q3.435,3.3,7.1,6.364c3.366,2.824,6.806,5.556,10.275,8.251-5.2,5.424-9.605,20.382-2.147,22.4,11.013,2.97,4.75-16.791,3.8-20.506a.592.592,0,0,0-.495.217c.043-.347.095-.718.161-1.093,6.638,5.129,13.364,10.145,19.89,15.41a28.648,28.648,0,0,0-2.007,2.958,32.065,32.065,0,0,0-3.885,6.338c-1.565,3.61-2.958,9.311,1.787,11.137,5.161,1.991,7.224-4.482,7.061-8.271-.113-2.62-.957-5.07-1.462-7.617-.158-.795.1-4.426-.91-2.817A7.65,7.65,0,0,0,66.813,98q1.758,1.425,3.493,2.881a1.359,1.359,0,0,0-.075.44,1.31,1.31,0,0,0,1.938,1.135q2.293,1.962,4.535,3.988c3.16,2.87,6.368,5.824,9.559,8.846-.627.6-.325,1.365-.907,2s-1.77,1.022-2.462,1.614a17.449,17.449,0,0,0-4.116,5.661c-1.62,3.4-3.575,10.457,1.748,11.758,5.486,1.344,7.878-5.475,8.007-9.668a106.607,106.607,0,0,0-1.565-10.689c5.9,5.617,11.729,11.46,17.042,17.438-1.51.093-5.634,3.415-6.457,4.305-2.005,2.172-5.128,6.9-1.295,9.119,3.408,1.965,7.307-1.344,8.558-4.427a42.294,42.294,0,0,0,.737-7.235c2.2,2.537,4.31,5.1,6.281,7.668q1.972,2.567,3.716,5.277a2.477,2.477,0,0,0-.689.754c-5.447,1.221-12.006,10.163-5.393,12.809,3.148,1.257,6.328-1.846,7.708-4.323a31.989,31.989,0,0,0,.958-4.965,103.007,103.007,0,0,1,8.222,19,1.2,1.2,0,0,0-.878,1.163c-2.589,1.661-4.63,3.038-6.339,6.061-1.062,1.877-2.928,6.138.525,6.968,4.494,1.08,6.92-5.824,7.107-9.172.022-.389-.039-1.513-.107-2.542a1.488,1.488,0,0,0,.461-.032c1.233,4.089,2.265,8.243,3.13,12.412-2.375.9-2.128,13.611-.425,15.332,3.806,3.855,6.036-2.119,5.682-5.2a20.41,20.41,0,0,0-4.359-9.691c-.226-.3-.166-.288-.2.149a.879.879,0,0,0-.234-.477,55.273,55.273,0,0,0-.088-5.585,129.5,129.5,0,0,0-2.421-14.447q-.391-1.733-.867-3.433a28.148,28.148,0,0,0,5.771,3.29C135.836,167.232,140,168.3,142.534,166.147ZM0,4.575A13.691,13.691,0,0,1,.762,0,35.7,35.7,0,0,0,0,4.575Z" transform="matrix(-0.999, -0.052, 0.052, -0.999, 146.961, 210.249)" fill="#f2f2f2" fill-rule="evenodd"/>
    <g id="Plant-Right" transform="translate(69.29 39.947)" opacity="0.7">
      <path id="Leaf-Me-Alone_" data-name="Leaf-Me-Alone!" d="M51.015,180.681c-10.409-.551-22.578-7.94-22.5-19.309.057-8.261,1.162-16.388.779-24.683a66.469,66.469,0,0,0-3.988-19.358c-2.153-6.005-7.354-11.471-8.2-17.733a26.338,26.338,0,0,1,2.273-13.076c2.075-4.46,1.192-4.183-1.564-8.4-5.4-8.26-10.165-16.649-13.159-26.151C.345,38.286-1.776,22.594,1.841,8.489,2.3,6.7,3.306.2,5.859.009,8.711-.206,7.01,3.39,6.734,4.58c-1.761,7.6-3.314,14.234-2.987,22.172C5.008,57.377,24.555,79.522,35.952,106.6c.636,1.4,1.94,4.716,2.859,6.909,1.451,3.462,2.6,9.882,4.774,12.564,4.095,5.055.855-4.582.148-6.43-.894-2.339-1.886-4.829-2.837-6.9-4.338-9.573-9.2-20.036-13.685-29.906C51.386,79.942,65.03,110.072,69.4,129.4c3.6,15.922,6.072,52.523-18.39,51.282" transform="matrix(-0.995, 0.105, -0.105, -0.995, 90.172, 262.337)" fill="#69a1ac" fill-rule="evenodd"/>
      <path id="Leaf-Me-Alone_2" data-name="Leaf-Me-Alone!" d="M186.626,78.092c-17.4,1.381-28.574,12.864-33.774,28.925-2.8,8.655-3.125,17.547-4.682,26.442-2.342,13.382-7.384,23.524-17.237,33.058a33.257,33.257,0,0,0-6.9,9.228,39.31,39.31,0,0,0-7.966,11.383c-2.592,5.722-3.326,12.587-.333,18.292.805,1.534,2.813,4.612,4.894,6.011-7.79,16.592-12.074,34.764-11.591,52.913.292,10.955.827,21.915,1.451,32.857.168,2.938,1.125,7.79,2.561,2.862,1.315-4.507-.334-11.582-.486-16.29-.743-22.937-1.377-43.792,8.064-65.221.99-2.246,2.04-4.474,3.133-6.684a2.181,2.181,0,0,0,.185-.126c.041.032.079.066.121.1.069-.125.165-.273.277-.438a5.963,5.963,0,0,0,.848-1.189c.837-1.161,1.785-2.525,1.79-3.271,0-.005,0-.014,0-.021a308.838,308.838,0,0,1,19.377-27.4c-.051.065,7.418-10.1,6.263-4.481-.557,2.711-6.05,7.871-8.269,10.742a267.488,267.488,0,0,0-15.461,22.3c-.644.371-1.555,2.188-2.214,3.543-.364.686-.7,1.378-1.036,1.981,16.971,5.607,30.172-5.687,39.174-18.824l.03-.047a57.1,57.1,0,0,1,9.052-10.1c5.848-4.788,12.112-5.633,19.008-7.989,18.806-6.426,26.8-30.8,29.341-48.882,2.865-20.4-11.149-51.687-35.617-49.676" transform="translate(-26.552 -18.82)" fill="#89c5cc" fill-rule="evenodd"/>
      <path id="Leaf-Me-Alone_3" data-name="Leaf-Me-Alone!" d="M74.791,1.74C54.517,17.662,42.384,41.993,32.244,65.045,20.921,90.791,12.1,117.312,7.994,145.158,5.3,163.453,2.207,181.81.705,200.251A196.549,196.549,0,0,0,.031,219.97c.011.54.3,15.213,2.972,12.179,1.521-1.726-.269-15.216-.239-17.418a282.172,282.172,0,0,1,3.342-36.973c2.962-20.182,5.191-40.36,10.066-60.2a68.815,68.815,0,0,1,2.539-8.923c1.2-3.019.04-1.79,2.682-2.68,2.567-.866,5.508-.278,8.208-1.437,10.712-4.6,17.922-19.263,23.27-28.8,6.117-10.9,10.577-22.821,14.465-34.655A256.381,256.381,0,0,0,74.5,14.727a70.419,70.419,0,0,1,1.988-8.515c.257-.734,1.2-1.964,1.267-2.636.141-1.424-.6-2.376-.5-3.575q-1.251.843-2.467,1.74" transform="translate(51.393 10.824) rotate(-8)" fill="#89c5cc" fill-rule="evenodd"/>
      <path id="Base" d="M38,328a55.662,55.662,0,1,0,111.324,0" transform="translate(-9.689 -78.196)" fill="#89c5cc" fill-rule="evenodd"/>
      <path id="Leaf-Me-Alone_4" data-name="Leaf-Me-Alone!" d="M115.941,312.977H113a98.744,98.744,0,0,1,1.09-11.023c2.36-13.956,9.737-34.453,25.917-36.719a41.8,41.8,0,0,1,5.453.058,9.824,9.824,0,0,1,4.161-1.228c13.776-1.016,29.16,10.1,35.805,21.664,5.357,9.325,4.454,21.569,1.146,31.477-2.216,6.632-7.052,16.089-15.116,16.181-10.089.115-10.576-12.355-10.771-19.644-.259-9.692-1.484-18.134-9.121-24.741-1.78-1.539-3.725-2.893-5.523-4.41-2.815-2.375-5.926-4.808-6.289-8.737-.5-5.421,2.56-6.4,7.232-5.39.8.172,8.821,3.772,7.633.926-.363-.869-1.687-1.559-3.36-2.075-4.326-.47-9.487-1.016-10.971-.69-16.009,3.512-22.242,25.688-23.9,39.777C116.212,309.923,116.068,311.449,115.941,312.977Z" transform="translate(-27.502 -62.996)" fill="#69a1ac" fill-rule="evenodd"/>
    </g>
  </g>
</svg>
