<svg xmlns="http://www.w3.org/2000/svg" width="23.785" height="16.467" viewBox="0 0 23.785 16.467">
  <g id="icon-mail" transform="translate(-3.375 -7.875)">
    <path id="Path_24" data-name="Path 24" d="M26.966,10.349l-6.152,6.266a.111.111,0,0,0,0,.16l4.305,4.585a.742.742,0,0,1,0,1.052.745.745,0,0,1-1.052,0l-4.288-4.568a.117.117,0,0,0-.166,0l-1.046,1.063a4.6,4.6,0,0,1-3.282,1.384,4.7,4.7,0,0,1-3.35-1.424l-1.006-1.023a.117.117,0,0,0-.166,0L6.474,22.413a.745.745,0,0,1-1.052,0,.742.742,0,0,1,0-1.052l4.305-4.585a.122.122,0,0,0,0-.16L3.569,10.349a.113.113,0,0,0-.194.08V22.968A1.835,1.835,0,0,0,5.2,24.8H25.33a1.835,1.835,0,0,0,1.83-1.83V10.429A.114.114,0,0,0,26.966,10.349Z" transform="translate(0 -0.456)" fill="#00509d"/>
    <path id="Path_25" data-name="Path 25" d="M15.426,18.344a3.108,3.108,0,0,0,2.236-.938l8.971-9.131a1.8,1.8,0,0,0-1.132-.4H5.358a1.785,1.785,0,0,0-1.132.4L13.2,17.406A3.109,3.109,0,0,0,15.426,18.344Z" transform="translate(-0.159)" fill="#00509d"/>
  </g>
</svg>
