<svg xmlns="http://www.w3.org/2000/svg" width="484.442" height="552" viewBox="0 0 484.442 552">
  <g id="character-sitting" transform="translate(484.442 552) rotate(180)">
    <g id="Head_Front_Short-2" data-name="Head/Front/Short-2" transform="translate(130.173 420.179)">
      <g id="Head" transform="translate(6.591 0)">
        <path id="Path_27" data-name="Path 27" d="M13.614,63.455C6.022,72.367.883,83.29,1.741,95.528c2.474,35.263,51.561,27.506,61.11,9.708s8.414-62.943-3.927-66.124C54,37.844,43.519,40.951,32.849,47.383L39.546,0H0Z" fill="#dcae92" fill-rule="evenodd"/>
      </g>
      <path id="Hair" d="M17.167,0C12.2,22.082-1.937,37.134.223,47q2.159,9.87,11.512,12.275,4.837,19.567,31.2,16.645C69.3,73,85.385,62.054,78.438,37.964c-6.387,0-14.1,2.31-24.761-1.648Q48.6,34.432,46.417,24.633H41.6Q34.584,36.262,27.766,33.18t-3.1-14.974L22.293,0Z" transform="translate(0 55.517)" fill="#191847" fill-rule="evenodd"/>
    </g>
    <g id="Bottom_Sitting_Baggy-Pants" data-name="Bottom/Sitting/Baggy-Pants" transform="translate(0)">
      <g id="Objects_Seat_Cube-2" data-name="Objects/Seat/Cube-2" transform="translate(0 9.887)">
        <path id="Seat" d="M26.364,204.322H215.857a26.364,26.364,0,0,0,26.364-26.364V26.364A26.363,26.363,0,0,0,215.857,0H26.364A26.364,26.364,0,0,0,0,26.364V177.958A26.364,26.364,0,0,0,26.364,204.322Zm26.364-46.137a6.591,6.591,0,0,1-6.591-6.591V52.728a6.591,6.591,0,0,1,6.591-6.591H189.493a6.591,6.591,0,0,1,6.591,6.591v98.866a6.591,6.591,0,0,1-6.591,6.591Z" fill="#c5cfd6" fill-rule="evenodd"/>
      </g>
      <path id="LegLower" d="M109.014,0Q60.284,59.507,43.069,88.231C23.42,121.02,7.338,150.2,2.263,161.342c-12.1,26.577,27.862,39.022,36.907,26.626Q59.7,159.823,126.878,10.847Z" transform="translate(296.597 18.125)" fill="#dcae92" fill-rule="evenodd"/>
      <path id="LegLower-2" data-name="LegLower" d="M62.217,0,1.755,152.192c-12.932,27.744,49.517,45.98,59.02,33.069,21.576-29.313,72.857-144.947,79.285-153.68Z" transform="translate(276.823 29.66)" fill="#2f3676" fill-rule="evenodd"/>
      <g id="Lower-Leg" transform="matrix(0.777, -0.629, 0.629, 0.777, 170.172, 55.222)">
        <path id="LegLower-3" data-name="LegLower" d="M2.973,8.788C1.315,29.551-1.767,101.427,1.316,134.7c.886,9.56,1.82,18.8,2.76,27.474,2.8,25.773,50.585,24.958,46.79.473C41.415,101.664,24.78,16.206,23.588,8.822,21.917-1.527,4.016-4.261,2.973,8.788Z" transform="translate(0)" fill="#dcae92" fill-rule="evenodd"/>
      </g>
      <g id="Accessories_Shoe_Flat-Sneaker" data-name="Accessories/Shoe/Flat-Sneaker" transform="matrix(0.866, -0.5, 0.5, 0.866, 166.345, 48.492)">
        <path id="shoe" d="M2.765,24.054Q0,16.673,0,13.008A82.679,82.679,0,0,1,1.485,0H94.422q3.622,11.976-4.183,12.931T77.272,14.656l-43.2,19.257a1.648,1.648,0,0,1-2.176-.834l-.018-.043L29.1,26.3q-7.225-3.371-11.743-3.371-3.67,0-10.137,2.965h0a3.3,3.3,0,0,1-4.369-1.623Q2.806,24.164,2.765,24.054Z" transform="translate(0)" fill="#e4e4e4" fill-rule="evenodd"/>
      </g>
      <g id="Accessories_Shoe_Flat-Sneaker-2" data-name="Accessories/Shoe/Flat-Sneaker" transform="translate(388.872 0)">
        <path id="shoe-2" data-name="shoe" d="M2.765,24.054Q0,16.673,0,13.008A82.679,82.679,0,0,1,1.485,0H94.422q3.622,11.976-4.183,12.931T77.272,14.656l-43.2,19.257a1.648,1.648,0,0,1-2.176-.834l-.018-.043L29.1,26.3q-7.225-3.371-11.743-3.371-3.67,0-10.137,2.964h0a3.3,3.3,0,0,1-4.369-1.623Q2.806,24.164,2.765,24.054Z" transform="translate(0 0)" fill="#e4e4e4" fill-rule="evenodd"/>
      </g>
      <path id="Leg-and-Butt" d="M157.69,129.288q-75.378,12.28-100.976,16.794C8.065,154.66-6.121,180.838,2.266,237.954H91.9q17.793-5.138,148.684-63.553c15.7-7.794,12.775-30.773,9.906-38.344q-.175-.463-79.4-136.057L97.764,46.711l60.064,77.073Q160.206,128.576,157.69,129.288Z" transform="translate(99.134 44.962)" fill="#5c63ab" fill-rule="evenodd"/>
    </g>
    <g id="Body_Hoodie" data-name="Body/Hoodie" transform="translate(5.211 157.927)">
      <path id="Skin" d="M258.069,146.56l52.56-38.6q21.385-5.771,35.732-14.359c2.259-2.058,4.989-6.227-4.381-5.507s-19.257,1.058-20.551-2.139,4.378-7.018,1.765-11.33q-2.615-4.313-24.695,21.625l-52.048,21.584ZM56.263,145.228l34.434-.135Q58.8,42.139,56.263,35.839C52.45,26.391,60.519,12,63.969,4.267c-11.238-5.029-10.04,13.594-24.217,7C26.813,5.245,16.97-5.661,2.021,3.563.183,4.7-1.831,8.966,3.035,12.3,15.159,20.616,32.63,35.166,34.99,39.956Q39.819,49.751,56.263,145.228Z" fill="#dcae92" fill-rule="evenodd"/>
      <path id="Coat-Back" d="M0,183.989l13.981,3.676C70.626,146.779,99.9,61.271,168.508,20.62L154.655,0C41.453,4.068,4.368,108.248,0,183.989Z" transform="translate(138.082 106.427) rotate(-5)" fill="#e87613" fill-rule="evenodd"/>
      <path id="Shirt" d="M0,0H126.072c5.762,0,4.676,8.318,3.843,12.516C120.3,60.961,82.785,113.182,82.785,182.142l-36.364,5.7C16.342,139.469,5.94,79.909,0,0Z" transform="translate(92.006 110.658)" fill="#dde3e9" fill-rule="evenodd"/>
      <path id="Coat-Front" d="M58.9,209.5q-7.922,2.277-12.547,10.623c-13.291,23.983-8.491,37.188,5.713,41.528s26.871-4.6,49.5-4.6a22.8,22.8,0,0,0,3.383-.232l11.384-.65Q165.334,90.124,143.364,34.6H44.135A338.428,338.428,0,0,0,27.258,0H.22Q-3.6,123.416,58.9,209.5Z" transform="translate(34.115 41.452)" fill="#ff9b21" fill-rule="evenodd"/>
      <path id="Shade" d="M21.608,56.851Q26.289,17.685,36.825,0H0Q10.287,23.987,21.608,56.851Z" transform="translate(78.251 76.055)" fill="rgba(0,0,0,0.1)" fill-rule="evenodd"/>
    </g>
  </g>
</svg>
