<?xml version="1.0" standalone="no"?>
<!DOCTYPE svg PUBLIC "-//W3C//DTD SVG 20010904//EN"
 "http://www.w3.org/TR/2001/REC-SVG-20010904/DTD/svg10.dtd">
<svg version="1.0" xmlns="http://www.w3.org/2000/svg"
 width="936.000000pt" height="936.000000pt" viewBox="0 0 936.000000 936.000000"
 preserveAspectRatio="xMidYMid meet">
<metadata>
Created by potrace 1.14, written by Peter Selinger 2001-2017
</metadata>
<g transform="translate(0.000000,936.000000) scale(0.100000,-0.100000)"
fill="#000000" stroke="none">
<path d="M2629 7496 c-2 -2 -36 -6 -74 -10 -39 -4 -81 -8 -95 -10 -14 -3 -43
-7 -65 -10 -49 -7 -84 -13 -155 -28 -30 -6 -59 -12 -65 -14 -5 -1 -53 -14
-105 -28 -52 -15 -102 -29 -110 -31 -8 -2 -42 -14 -75 -26 -33 -13 -62 -24
-65 -24 -43 -11 -390 -176 -390 -185 0 -4 -16 -12 -35 -20 -19 -8 -35 -17 -35
-22 0 -4 -5 -8 -12 -8 -6 0 -26 -11 -44 -25 -18 -14 -35 -25 -39 -25 -5 0 -69
-45 -110 -78 -5 -4 -28 -21 -50 -37 -138 -102 -354 -313 -477 -466 -193 -239
-363 -542 -460 -819 -16 -47 -32 -92 -35 -100 -3 -8 -7 -19 -8 -25 -2 -5 -12
-41 -23 -80 -23 -78 -60 -248 -67 -310 -3 -22 -7 -49 -9 -61 -28 -138 -28
-558 -1 -756 7 -54 21 -136 30 -178 4 -14 8 -36 11 -50 3 -14 14 -59 25 -100
11 -41 24 -91 29 -110 5 -19 26 -80 46 -135 20 -55 38 -110 41 -122 3 -13 9
-23 14 -23 5 0 9 -6 9 -13 0 -18 140 -301 151 -305 5 -2 9 -8 9 -13 0 -9 78
-135 117 -188 45 -62 125 -167 160 -209 60 -74 303 -312 368 -362 33 -25 67
-52 76 -60 43 -38 196 -140 209 -140 5 0 10 -4 10 -8 0 -5 15 -16 32 -25 18
-9 53 -29 78 -43 64 -38 197 -104 209 -104 6 0 11 -5 11 -12 0 -6 3 -9 6 -5 3
3 34 -7 69 -23 69 -31 294 -109 335 -116 14 -3 39 -9 55 -14 70 -21 182 -44
265 -56 77 -11 104 -15 138 -21 20 -4 1566 -8 3435 -10 l3398 -3 -4 1537 c-2
846 -6 1554 -10 1573 -8 42 -18 121 -23 170 -1 19 -4 37 -5 40 -1 3 -3 10 -4
15 0 6 -6 33 -13 60 -6 28 -14 61 -17 75 -30 158 -136 445 -237 645 -36 70
-136 243 -148 255 -3 3 -23 32 -45 65 -79 118 -201 262 -329 390 -72 72 -146
141 -164 155 -19 14 -47 36 -63 50 -48 42 -51 44 -149 110 -52 36 -96 68 -98
73 -2 4 -8 7 -13 7 -6 0 -33 15 -62 33 -29 18 -76 46 -106 61 -30 15 -62 32
-70 37 -27 15 -184 85 -221 98 -19 7 -44 17 -55 22 -83 35 -345 109 -440 125
-11 1 -31 5 -45 9 -24 5 -53 9 -145 21 -22 3 -56 8 -75 11 -37 7 -4184 16
-4191 9z"/>
</g>
</svg>
