<svg id="Logo" xmlns="http://www.w3.org/2000/svg" width="249.744" height="46.994" viewBox="0 0 249.744 46.994">
  <path id="Path_12" data-name="Path 12" d="M69.261,6.284H64V30.021H78.563V25.37h-9.3Z" transform="translate(29.989 2.944)" fill="#00509d"/>
  <path id="Path_13" data-name="Path 13" d="M74.258,19.667c0,5.068,3.4,8.436,8.532,8.436,5.1,0,8.5-3.368,8.5-8.436s-3.4-8.468-8.5-8.468C77.659,11.2,74.258,14.6,74.258,19.667Zm4.972-.032c0-2.406,1.411-4.009,3.561-4.009,2.117,0,3.529,1.6,3.529,4.009,0,2.438-1.411,4.042-3.529,4.042C80.642,23.676,79.23,22.073,79.23,19.635Z" transform="translate(34.796 5.247)" fill="#00509d"/>
  <path id="Path_14" data-name="Path 14" d="M86.418,19.431c0,4.844,3.144,8.115,7.6,8.115a6.122,6.122,0,0,0,4.94-2.021v2.213a3.473,3.473,0,0,1-3.817,3.689c-2.181,0-3.689-1.026-3.785-2.855h-5c.449,4.395,3.849,7.346,8.5,7.346,5.485,0,8.949-3.56,8.949-9.206V11.7H99.345l-.257,1.636a6,6,0,0,0-4.972-2.181C89.626,11.155,86.418,14.523,86.418,19.431Zm5-.128a3.559,3.559,0,0,1,3.5-3.849A3.713,3.713,0,0,1,98.864,19.3a3.764,3.764,0,0,1-3.913,3.945A3.651,3.651,0,0,1,91.422,19.3Z" transform="translate(40.463 5.227)" fill="#00509d"/>
  <path id="Path_15" data-name="Path 15" d="M99.217,19.667c0,5.068,3.4,8.436,8.533,8.436,5.1,0,8.5-3.368,8.5-8.436s-3.4-8.468-8.5-8.468C102.617,11.2,99.217,14.6,99.217,19.667Zm4.972-.032c0-2.406,1.411-4.009,3.561-4.009,2.116,0,3.528,1.6,3.528,4.009,0,2.438-1.411,4.042-3.528,4.042C105.6,23.676,104.188,22.073,104.188,19.635Z" transform="translate(46.49 5.247)" fill="#00509d"/>
  <path id="Path_16" data-name="Path 16" d="M114.616,11.613a2.807,2.807,0,1,0-2.823-2.823A2.8,2.8,0,0,0,114.616,11.613Zm-2.5,18.54h4.973V14.115h-4.973Z" transform="translate(52.383 2.811)" fill="#00509d"/>
  <path id="Path_17" data-name="Path 17" d="M117.368,35.427h4.876v-9.3c.93,1.219,3.047,2.053,5.26,2.053,4.779,0,7.666-3.657,7.538-8.725-.129-5.164-3.112-8.276-7.57-8.276-2.278,0-4.426.994-5.325,2.47l-.257-1.957h-4.522Zm4.971-15.718a3.764,3.764,0,0,1,3.914-4.01,3.69,3.69,0,0,1,3.817,4.01,3.69,3.69,0,0,1-3.817,4.01A3.764,3.764,0,0,1,122.339,19.709Z" transform="translate(54.996 5.237)" fill="#00509d"/>
  <path id="Path_18" data-name="Path 18" d="M129.761,22.66c.128,3.24,2.695,5.485,6.736,5.485,3.881,0,6.576-2.053,6.576-5.357,0-2.374-1.411-3.945-4.043-4.587l-2.853-.706c-1.027-.257-1.668-.513-1.668-1.347s.673-1.379,1.668-1.379a1.7,1.7,0,0,1,1.828,1.828h4.459c-.129-3.336-2.663-5.421-6.191-5.421-3.56,0-6.222,2.117-6.222,5.325,0,2.149,1.187,3.913,4.362,4.747l2.823.738c.834.225,1.187.609,1.187,1.155,0,.8-.737,1.315-1.988,1.315-1.444,0-2.213-.674-2.213-1.8Z" transform="translate(60.803 5.237)" fill="#00509d"/>
  <path id="Path_19" data-name="Path 19" d="M145.857,27.981a6.345,6.345,0,0,0,4.908-2.213l.322,1.8h4.651V11.526H150.8v8.34c0,2.406-.7,3.721-2.983,3.721-1.765,0-2.92-.8-2.92-3.785V11.526h-4.94V21.6C139.955,25.415,142.073,27.981,145.857,27.981Z" transform="translate(65.579 5.401)" fill="#00509d"/>
  <path id="Path_20" data-name="Path 20" d="M157.623,27.739V18.982c0-2.695,1.444-3.464,2.855-3.464,1.571,0,2.6.962,2.6,2.951v9.27h4.876V18.982c0-2.727,1.411-3.5,2.823-3.5,1.571,0,2.63.962,2.63,2.983v9.27h4.813V17.249c0-3.657-1.925-6.095-6.064-6.095a5.406,5.406,0,0,0-5.036,2.855,5.576,5.576,0,0,0-5.293-2.855,5.46,5.46,0,0,0-4.362,2.085l-.192-1.54h-4.62V27.739Z" transform="translate(71.528 5.227)" fill="#00509d"/>
  <path id="Path_21" data-name="Path 21" d="M0,23.5A23.5,23.5,0,0,1,23.5,0h30.84a23.5,23.5,0,0,1,23.5,23.5v23.5H23.5A23.5,23.5,0,0,1,0,23.5Z" fill="#00509d"/>
  <rect id="Rectangle_20" data-name="Rectangle 20" width="60.212" height="29.371" rx="10" transform="translate(8.811 8.811)" fill="#a5b4fc"/>
  <circle id="Ellipse_9" data-name="Ellipse 9" cx="7.343" cy="7.343" r="7.343" transform="translate(16.154 16.154)"/>
  <circle id="Ellipse_10" data-name="Ellipse 10" cx="1.469" cy="1.469" r="1.469" transform="translate(19.091 19.091)" fill="#fff"/>
  <circle id="Ellipse_11" data-name="Ellipse 11" cx="7.343" cy="7.343" r="7.343" transform="translate(48.463 16.154)"/>
  <circle id="Ellipse_12" data-name="Ellipse 12" cx="1.469" cy="1.469" r="1.469" transform="translate(51.4 19.091)" fill="#fff"/>
</svg>
